<?xml version="1.0" encoding="utf-8"?>
<!-- Generator: Adobe Illustrator 21.0.0, SVG Export Plug-In . SVG Version: 6.00 Build 0)  -->
<svg version="1.1" id="Layer_1" xmlns="http://www.w3.org/2000/svg" xmlns:xlink="http://www.w3.org/1999/xlink" x="0px" y="0px"
	 viewBox="0 0 512 512" style="enable-background:new 0 0 512 512;" xml:space="preserve">
<g>
	<path d="M438.9,0H132.6c-2.5,0-4.6,2.1-4.6,4.6v32c0,2.5,2.1,4.6,4.6,4.6H416v393.1c0,2.5,2.1,4.6,4.6,4.6h32
		c2.5,0,4.6-2.1,4.6-4.6v-416C457.1,8.2,449,0,438.9,0z M365.7,73.1H73.1c-10.1,0-18.3,8.2-18.3,18.3v303.3c0,4.9,1.9,9.5,5.4,12.9
		l99,99c1.3,1.3,2.7,2.3,4.2,3.1v1.1h2.4c2,0.7,4.1,1.1,6.3,1.1h193.5c10.1,0,18.3-8.2,18.3-18.3V91.4
		C384,81.3,375.8,73.1,365.7,73.1z M163.4,452.7l-49.2-49.3h49.2V452.7z M342.9,470.9H200v-81.1c0-12.6-10.2-22.9-22.9-22.9H96
		V114.3h246.9V470.9z"/>
</g>
</svg>
